<svg width="16" height="38" viewBox="0 0 16 38" fill="none" xmlns="http://www.w3.org/2000/svg">
<path d="M12.4446 11.4763C12.4446 11.4763 12.6663 9.84702 11.2581 9.84777C9.84978 9.84853 10.0731 11.4416 10.0731 11.4416L10.0746 25.6073C10.0746 25.6073 10.5566 29.4067 8.00099 29.3735C5.44543 29.3373 5.92592 25.6073 5.92592 25.6073L5.92667 7.03575C5.92667 7.03575 5.70642 2.48129 9.77963 2.47978C13.8506 2.48205 13.6281 7.04782 13.6281 7.04782L13.6281 27.9162C13.6281 27.9162 14.1463 35.1115 7.96478 35.1107C1.78331 35.11 2.37694 27.9147 2.37694 27.9147L2.37468 12.0692C2.37468 12.0692 2.52101 10.4414 1.18968 10.4391C-0.143925 10.4407 0.00542624 12.0684 0.00542624 12.0684L0.00542396 30.2485C0.00542396 30.2485 0.337316 37.443 8.00024 37.4423C15.6654 37.4438 15.9996 30.247 15.9996 30.247L15.9981 5.25862C15.9981 5.25862 15.7409 0.00191199 9.77888 0.000404462C3.8169 -0.0011029 3.55893 5.25636 3.55893 5.25636L3.55742 26.7554C3.55742 26.7554 3.04374 31.7481 8.03871 31.7466C13.0367 31.7481 12.4415 26.7554 12.4415 26.7554L12.4446 11.4763Z" fill="#8ECFFD" stroke="#8ECFFD" stroke-width="0.00083068"/>
</svg>
