<svg width="30" height="33" viewBox="0 0 30 33" fill="none" xmlns="http://www.w3.org/2000/svg">
<g clip-path="url(#clip0_42_44)">
<path d="M8.41992 23.9043C8.44368 23.9685 8.45653 24.0379 8.45653 24.1098C8.45653 24.1824 8.44368 24.2518 8.41992 24.3161V29.1925C8.41992 29.8824 8.70321 30.5113 9.15867 30.9668C9.61413 31.4223 10.2424 31.7049 10.933 31.7049H26.2876C26.9782 31.7049 27.6064 31.4223 28.0619 30.9668C28.5173 30.5113 28.8 29.8824 28.8 29.1925V9.79143C28.8 9.1137 28.5296 8.497 28.0921 8.0454L28.0619 8.01777C27.6064 7.56231 26.9782 7.27902 26.2876 7.27902H10.933C10.2424 7.27902 9.61413 7.56231 9.15867 8.01777C8.70321 8.47323 8.41992 9.1015 8.41992 9.79143V23.9043ZM7.22056 24.7099H3.67645C2.66017 24.7099 1.74283 24.2872 1.07794 23.6107C0.411777 22.9317 0 21.9957 0 20.9756V3.71242C0 2.69358 0.417559 1.76595 1.09015 1.09272L1.09272 1.09015C1.76724 0.416916 2.69422 0 3.71242 0H19.3632C20.3827 0 21.3096 0.418201 21.9822 1.09079L21.9842 1.09272C22.6574 1.76595 23.0756 2.69422 23.0756 3.71242V6.07966H26.2876C27.309 6.07966 28.2379 6.49722 28.9099 7.16917L28.9445 7.20642C29.5966 7.87709 30 8.79058 30 9.79143V29.1925C30 30.2139 29.5824 31.1428 28.9105 31.8148C28.2379 32.4874 27.309 32.9049 26.2876 32.9049H10.933C9.91156 32.9049 8.9833 32.4874 8.31071 31.8148C7.63812 31.1428 7.22056 30.2139 7.22056 29.1925V24.7099ZM21.8762 6.07966V3.71242C21.8762 3.02248 21.5929 2.39358 21.1375 1.93747C20.682 1.48266 20.0544 1.2 19.3632 1.2H3.71242C3.01991 1.2 2.39165 1.48137 1.93812 1.93555L1.93555 1.93812C1.48201 2.39165 1.2 3.01991 1.2 3.71242V20.9756C1.2 21.6732 1.4788 22.3111 1.93105 22.7724C2.37752 23.2266 2.99358 23.5105 3.67645 23.5105H7.22056V9.79143C7.22056 8.77002 7.63812 7.84176 8.31071 7.16917C8.9833 6.49657 9.91156 6.07966 10.933 6.07966H21.8762Z" fill="#8ECFFD"/>
</g>
<defs>
<clipPath id="clip0_42_44">
<rect width="30" height="32.9049" fill="white"/>
</clipPath>
</defs>
</svg>
