<svg width="7" height="29" viewBox="0 0 7 29" fill="none" xmlns="http://www.w3.org/2000/svg">
<path fill-rule="evenodd" clip-rule="evenodd" d="M3.49988 0C5.43232 0 7 1.56745 7 3.50012C7 5.43255 5.43232 6.99953 3.49988 6.99953C1.56745 6.9993 0 5.43255 0 3.50012C0 1.56745 1.56745 0 3.49988 0ZM3.49988 21.7139C5.43232 21.7139 7 23.2813 7 25.214C7 27.1466 5.43232 28.7134 3.49988 28.7134C1.56745 28.7132 0 27.1464 0 25.2137C0 23.2811 1.56745 21.7139 3.49988 21.7139ZM3.49988 10.8569C5.43232 10.8569 7 12.4244 7 14.357C7 16.2897 5.43232 17.8569 3.49988 17.8569C1.56745 17.8567 0 16.2895 0 14.3568C0 12.4241 1.56745 10.8569 3.49988 10.8569Z" fill="#8ECFFD"/>
</svg>
