<svg width="30" height="22" viewBox="0 0 30 22" fill="none" xmlns="http://www.w3.org/2000/svg">
<g clip-path="url(#clip0_42_46)">
<path d="M14.2309 10.2734V0.761719C14.2309 0.341797 14.5751 0 14.9999 0C15.4247 0 15.769 0.341797 15.769 0.761719V10.2734L19.3115 7.17773C19.6288 6.89941 20.1122 6.92871 20.393 7.24365C20.6738 7.55859 20.6445 8.03711 20.3271 8.31543L15.5078 12.5244C15.2123 12.7832 14.7729 12.7759 14.4872 12.5195L9.67279 8.31543C9.35541 8.03711 9.32611 7.55859 9.60687 7.24365C9.88764 6.93115 10.371 6.90186 10.6884 7.17773L14.2309 10.2734ZM0.0219146 11.5796C-0.0830659 11.1475 0.183047 10.7129 0.615176 10.6079C1.04731 10.5029 1.48188 10.769 1.58686 11.2012C1.83832 12.2412 2.01654 13.1372 2.18012 13.96C2.95404 17.8638 3.36908 19.9585 8.80854 19.9585H21.6381C26.7211 19.9585 27.1337 17.7441 27.8198 14.0771C27.9833 13.1982 28.1616 12.2461 28.4155 11.2012C28.5204 10.769 28.955 10.5029 29.3871 10.6079C29.8193 10.7129 30.083 11.1475 29.9804 11.5796C29.7412 12.561 29.5654 13.5034 29.4042 14.375C28.5644 18.8623 28.059 21.5723 21.6406 21.5723H8.80609C2.0434 21.5723 1.53803 19.0234 0.595645 14.27C0.417422 13.3716 0.2392 12.4707 0.0219146 11.5796Z" fill="#8ECFFD"/>
</g>
<defs>
<clipPath id="clip0_42_46">
<rect width="30" height="21.5723" fill="white"/>
</clipPath>
</defs>
</svg>
